<svg width="30" height="30" viewBox="0 0 30 30" fill="none" xmlns="http://www.w3.org/2000/svg">
<g clip-path="url(#clip0_146_878)">
<path d="M22.9688 0H7.03125C3.148 0 0 3.148 0 7.03125V22.9688C0 26.852 3.148 30 7.03125 30H22.9688C26.852 30 30 26.852 30 22.9688V7.03125C30 3.148 26.852 0 22.9688 0Z" fill="black"/>
<path d="M9.80997 21.0868C9.69521 21.0869 9.58177 21.0623 9.47744 21.0145C9.2815 20.9262 9.12867 20.7636 9.05254 20.5626C8.97642 20.3617 8.98324 20.1387 9.07151 19.9427L11.6933 14.1289L11.704 14.1061L14.2599 8.43793C14.3325 8.30528 14.4394 8.19463 14.5695 8.11757C14.6996 8.04052 14.8481 7.99991 14.9993 8C15.1505 7.99999 15.2989 8.04064 15.429 8.11769C15.5591 8.19473 15.6661 8.30534 15.7388 8.43793L20.9281 19.9427C21.0022 20.1067 21.0196 20.2908 20.9776 20.4658C20.9355 20.6409 20.8364 20.7969 20.6959 20.9094C20.5553 21.0218 20.3814 21.0843 20.2014 21.0871C20.0214 21.0898 19.8457 21.0327 19.7017 20.9246L12.7602 15.7074L10.5494 20.6091C10.4852 20.7514 10.3813 20.8722 10.2501 20.9569C10.1189 21.0416 9.96612 21.0867 9.80997 21.0868ZM13.4442 14.1922L18.1514 17.7308L14.9993 10.7437L13.4442 14.1922Z" fill="white"/>
<path d="M14.9999 28.0001C12.4287 28.0002 9.9153 27.2378 7.77749 25.8093C5.63967 24.3809 3.97348 22.3505 2.98964 19.975C2.254 18.1991 1.92136 16.2822 2.01565 14.3623C2.10994 12.4424 2.62883 10.5673 3.53494 8.872C4.44105 7.17673 5.71184 5.7035 7.25577 4.5584C8.79971 3.41331 10.5784 2.62486 12.4637 2.24982C14.349 1.87479 16.2939 1.92251 18.1586 2.38955C20.0232 2.85659 21.7611 3.73133 23.247 4.95076C24.7329 6.17019 25.9299 7.70397 26.7518 9.44163C27.5737 11.1793 28 13.0776 28 14.9998C27.9963 18.4466 26.6255 21.7511 24.1883 24.1883C21.7511 26.6255 18.4466 27.9964 14.9999 28.0001ZM14.9999 3.46089C12.7176 3.46092 10.4865 4.13773 8.5889 5.40573C6.69127 6.67373 5.21226 8.47598 4.33891 10.5846C3.46555 12.6931 3.23708 15.0133 3.68238 17.2518C4.12769 19.4902 5.22676 21.5463 6.84063 23.1601C8.45449 24.7739 10.5107 25.8728 12.7491 26.318C14.9876 26.7632 17.3077 26.5346 19.4163 25.6611C21.5248 24.7877 23.327 23.3086 24.5949 21.4109C25.8628 19.5132 26.5395 17.2821 26.5394 14.9998C26.5358 11.9405 25.3188 9.00753 23.1555 6.8443C20.9922 4.68107 18.0592 3.46439 14.9999 3.46089Z" fill="#EE0000"/>
</g>
<defs>
<clipPath id="clip0_146_878">
<rect width="30" height="30" fill="white"/>
</clipPath>
</defs>
</svg>
