<!-- <svg viewBox="0 0 200 187" xmlns="http://www.w3.org/2000/svg" xmlns:xlink="http://www.w3.org/1999/xlink">
    <mask id="mask0" mask-type="alpha">
        <path d="M190.312 36.4879C206.582 62.1187 201.309 102.826 182.328 134.186C163.346 165.547 
        130.807 187.559 100.226 186.353C69.6454 185.297 41.0228 161.023 21.7403 129.362C2.45775 
        97.8511 -7.48481 59.1033 6.67581 34.5279C20.9871 10.1032 59.7028 -0.149132 97.9666 
        0.00163737C136.23 0.303176 174.193 10.857 190.312 36.4879Z"/>
    </mask>
    <g mask="url(#mask0)">
        <path d="M190.312 36.4879C206.582 62.1187 201.309 102.826 182.328 134.186C163.346 
        165.547 130.807 187.559 100.226 186.353C69.6454 185.297 41.0228 161.023 21.7403 
        129.362C2.45775 97.8511 -7.48481 59.1033 6.67581 34.5279C20.9871 10.1032 59.7028 
        -0.149132 97.9666 0.00163737C136.23 0.303176 174.193 10.857 190.312 36.4879Z"/>
        
        <image href=""/>
    </g>
</svg> -->

<svg viewBox="0 0 200 200" xmlns="http://www.w3.org/2000/svg">
  <path fill="#FF0066" d="M51.9,-62.4C63.7,-52,67.2,-32.2,68.8,-13.5C70.5,5.2,70.4,22.9,62.2,34.8C54,46.7,37.7,52.9,21.5,58.5C5.3,64.1,-10.8,69.2,-27.4,66.9C-44,64.5,-61.1,54.8,-72,39.7C-82.9,24.6,-87.7,4.2,-82.1,-12.2C-76.4,-28.5,-60.4,-40.6,-44.9,-50.4C-29.5,-60.2,-14.8,-67.6,2.7,-70.8C20.1,-73.9,40.1,-72.8,51.9,-62.4Z" transform="translate(100 100)" />
</svg>
