<svg width="310" height="310" viewBox="0 0 310 310" fill="none" xmlns="http://www.w3.org/2000/svg">
<g clip-path="url(#clip0_23_2)">
<mask id="mask0_23_2" style="mask-type:luminance" maskUnits="userSpaceOnUse" x="5" y="5" width="300" height="300">
<path d="M305 5H5V305H305V5Z" fill="white"/>
</mask>
<g mask="url(#mask0_23_2)">
<path fill-rule="evenodd" clip-rule="evenodd" d="M5 230C5 271.421 43.8553 305 91.7857 305H218.214C266.144 305 305 271.421 305 230V80C305 38.5786 266.144 5 218.214 5H91.7857C43.8553 5 5 38.5786 5 80V230ZM68.0708 32.0717C68.7565 31.3855 69.6864 31 70.6561 31L239.347 31.0183C240.104 31.0189 240.842 31.2546 241.459 31.6929C242.077 32.1312 242.543 32.7504 242.794 33.4652C243.044 34.18 243.067 34.955 242.859 35.6834C242.651 36.4118 242.222 37.0575 241.632 37.5316L72.9411 172.006C72.1823 172.61 71.2149 172.888 70.2516 172.778C69.2883 172.668 68.408 172.18 67.8043 171.421C67.2681 170.75 67 169.987 67 169.134V34.6592C67 33.6887 67.3852 32.758 68.0708 32.0717ZM67.6398 251.794C67.2133 251.172 67 250.483 67 249.727V193.339C66.9992 192.782 67.1256 192.231 67.3695 191.73C67.6134 191.23 67.9685 190.791 68.4076 190.448L117.582 151.99C118.225 151.491 119.016 151.22 119.83 151.222H209.148C209.928 151.222 210.689 151.472 211.317 151.936C211.945 152.4 212.409 153.053 212.64 153.799C212.871 154.545 212.857 155.346 212.6 156.084C212.343 156.822 211.857 157.458 211.213 157.9L72.7217 252.745C71.9218 253.294 70.937 253.501 69.9839 253.323C69.0309 253.145 68.1877 252.595 67.6398 251.794ZM67.4182 272.202C67.6919 271.68 68.0878 271.231 68.5721 270.895L119.757 235.346C120.305 234.966 120.947 234.742 121.612 234.701C122.278 234.659 122.942 234.8 123.534 235.109C124.125 235.418 124.62 235.883 124.966 236.454C125.312 237.025 125.496 237.679 125.497 238.347V275.341C125.497 276.311 125.112 277.242 124.426 277.928C123.741 278.614 122.811 279 121.841 279H70.5098C68.5721 279 67 277.427 67 275.487V273.895C67.001 273.306 67.1444 272.725 67.4182 272.202Z" fill="url(#paint0_linear_23_2)"/>
<path d="M70.6561 31C69.6864 31 68.7565 31.3855 68.0708 32.0717C67.3852 32.758 67 33.6887 67 34.6592V169.134C67 169.987 67.2681 170.75 67.8043 171.421C68.408 172.18 69.2883 172.668 70.2516 172.778C71.2149 172.888 72.1823 172.61 72.9411 172.006L241.632 37.5316C242.222 37.0575 242.651 36.4118 242.859 35.6834C243.067 34.955 243.044 34.18 242.794 33.4652C242.543 32.7504 242.077 32.1312 241.459 31.6929C240.842 31.2546 240.104 31.0189 239.347 31.0183L70.6561 31ZM67 249.727C67 250.483 67.2133 251.172 67.6398 251.794C68.1877 252.595 69.0309 253.145 69.9839 253.323C70.937 253.502 71.9218 253.294 72.7217 252.746L211.213 157.9C211.857 157.458 212.343 156.822 212.6 156.084C212.857 155.346 212.871 154.545 212.64 153.799C212.409 153.053 211.945 152.4 211.317 151.936C210.689 151.472 209.928 151.222 209.148 151.222H119.83C119.016 151.22 118.225 151.491 117.582 151.99L68.4076 190.448C67.9685 190.791 67.6134 191.23 67.3695 191.731C67.1256 192.231 66.9992 192.782 67 193.339V249.727ZM68.5721 270.895C68.0878 271.231 67.6919 271.68 67.4182 272.202C67.1444 272.725 67.001 273.306 67 273.895V275.487C67 277.427 68.5721 279 70.5098 279H121.841C122.811 279 123.741 278.614 124.426 277.928C125.112 277.242 125.497 276.311 125.497 275.341V238.347C125.496 237.679 125.312 237.025 124.966 236.454C124.62 235.883 124.125 235.418 123.534 235.109C122.942 234.8 122.278 234.659 121.612 234.701C120.947 234.742 120.305 234.966 119.757 235.346L68.5721 270.895Z" fill="#DECD77"/>
</g>
</g>
<rect x="5" y="5" width="300" height="300" rx="80" stroke="#DECD77" stroke-width="10"/>
<defs>
<linearGradient id="paint0_linear_23_2" x1="6.39987" y1="5.00001" x2="303.6" y2="305" gradientUnits="userSpaceOnUse">
<stop offset="0.05" stop-color="#C0526A"/>
<stop offset="0.505" stop-color="#683A67"/>
<stop offset="0.91" stop-color="#18223C"/>
</linearGradient>
<clipPath id="clip0_23_2">
<rect x="5" y="5" width="300" height="300" rx="80" fill="white"/>
</clipPath>
</defs>
</svg>
