<svg width="300" height="300" viewBox="0 0 300 300" fill="none" xmlns="http://www.w3.org/2000/svg">
<g clip-path="url(#clip0_18_53)">
<path d="M86.7857 300C38.8553 300 0 266.421 0 225V75C0 33.5786 38.8553 0 86.7857 0H213.214C261.144 0 300 33.5786 300 75V225C300 266.421 261.144 300 213.214 300H86.7857Z" fill="#A02BFF"/>
<path opacity="0.3" d="M195.46 140L223.052 90H101.586L125.279 140H195.46Z" fill="white"/>
<path d="M195.46 160C202.958 160 209.556 155.9 212.955 149.7L248.745 84.8C249.588 83.2843 250.02 81.5747 249.999 79.8406C249.978 78.1064 249.505 76.4077 248.627 74.9126C247.748 73.4175 246.494 72.1778 244.99 71.3162C243.485 70.4546 241.781 70.0009 240.048 70H92.0884L82.691 50H50V70H69.9945L105.985 145.9L92.4883 170.3C85.1903 183.7 94.7877 200 109.983 200H229.95V180H109.983L120.98 160H195.46ZM101.586 90H223.052L195.46 140H125.279L101.586 90ZM109.983 210C98.9865 210 90.089 219 90.089 230C90.089 241 98.9865 250 109.983 250C120.98 250 129.978 241 129.978 230C129.978 219 120.98 210 109.983 210ZM209.956 210C198.959 210 190.061 219 190.061 230C190.061 241 198.959 250 209.956 250C220.953 250 229.95 241 229.95 230C229.95 219 220.953 210 209.956 210Z" fill="white"/>
</g>
<defs>
<clipPath id="clip0_18_53">
<rect width="300" height="300" fill="white"/>
</clipPath>
</defs>
</svg>
