<svg width="300" height="300" viewBox="0 0 300 300" fill="none" xmlns="http://www.w3.org/2000/svg">
<g clip-path="url(#clip0_7_2)">
<path d="M75 300C33.5786 300 0 266.421 0 225V75C0 33.5786 33.5786 0 75 0H225C266.421 0 300 33.5786 300 75V225C300 266.421 266.421 300 225 300H75Z" fill="#ED6103"/>
<path d="M225.307 229.306C225.279 238.516 217.82 245.974 208.611 246.002H91.7408C82.5315 245.974 75.0726 238.516 75.0451 229.306V127.312L63.2579 135.885C59.5281 138.596 54.3068 137.77 51.596 134.04C48.8851 130.311 49.711 125.089 53.4408 122.378L145.267 55.5956C148.194 53.4681 152.158 53.4681 155.084 55.5956L246.911 122.378C249.837 124.504 251.061 128.273 249.943 131.712C248.825 135.152 245.619 137.48 242.002 137.48C240.242 137.478 238.526 136.92 237.102 135.885L225.307 127.307V229.306Z" fill="black" stroke="black" stroke-width="20" stroke-miterlimit="10" stroke-linejoin="round"/>
<path d="M225.305 117.026V229.305C225.278 238.514 217.819 245.973 208.609 246.001H91.7393C82.5299 245.973 75.071 238.514 75.0436 229.305V117.026L150.174 62.3477L225.305 117.026Z" fill="url(#paint0_linear_7_2)"/>
<path d="M175.218 249.001H178.218V246.001V170.87C178.218 164.603 173.137 159.522 166.87 159.522H133.479C127.211 159.522 122.131 164.603 122.131 170.87V246.001V249.001H125.131H175.218Z" fill="url(#paint1_linear_7_2)" stroke="black" stroke-width="6"/>
<path d="M241.998 142.48H242.001C247.784 142.481 252.91 138.758 254.698 133.258C256.486 127.758 254.528 121.733 249.85 118.333L158.025 51.5519L158.024 51.5513C153.345 48.1496 147.007 48.1496 142.327 51.5513L142.326 51.5519L50.5012 118.334C50.5008 118.334 50.5004 118.334 50.5 118.335C44.5374 122.669 43.2173 131.017 47.5514 136.98C51.8859 142.944 60.2341 144.264 66.1976 139.93L66.1989 139.929L150.176 78.8495L234.161 139.929L234.163 139.93C236.441 141.585 239.183 142.477 241.998 142.48Z" fill="url(#paint2_linear_7_2)" stroke="black" stroke-width="10"/>
</g>
<defs>
<linearGradient id="paint0_linear_7_2" x1="150.174" y1="74.7776" x2="150.174" y2="243.429" gradientUnits="userSpaceOnUse">
<stop stop-color="#FFEEB1"/>
<stop offset="1" stop-color="#FFE0C7"/>
</linearGradient>
<linearGradient id="paint1_linear_7_2" x1="150.174" y1="160.569" x2="150.174" y2="245.458" gradientUnits="userSpaceOnUse">
<stop stop-color="#FF7A09"/>
<stop offset="1" stop-color="#FFA300"/>
</linearGradient>
<linearGradient id="paint2_linear_7_2" x1="50" y1="-15.2895" x2="2454.23" y2="889.314" gradientUnits="userSpaceOnUse">
<stop stop-color="#FFD809"/>
<stop offset="1" stop-color="#FFA300"/>
</linearGradient>
<clipPath id="clip0_7_2">
<rect width="300" height="300" fill="white"/>
</clipPath>
</defs>
</svg>
